<?xml version="1.0" standalone="no"?>
<!DOCTYPE svg PUBLIC "-//W3C//DTD SVG 20010904//EN"
 "http://www.w3.org/TR/2001/REC-SVG-20010904/DTD/svg10.dtd">
<svg version="1.0" xmlns="http://www.w3.org/2000/svg"
 width="240.000000pt" height="151.000000pt" viewBox="0 0 240.000000 151.000000"
 preserveAspectRatio="xMidYMid meet">

<g transform="translate(0.000000,151.000000) scale(0.100000,-0.100000)"
fill="#000000" stroke="none">
<path d="M1143 1455 c-48 -20 -75 -70 -68 -121 6 -39 -5 -63 -152 -352 l-158
-309 -85 78 -85 79 -59 -59 -59 -59 104 -100 104 -100 -38 -77 -38 -78 33 26
c48 38 62 51 74 73 10 16 35 -4 239 -199 126 -119 231 -217 235 -217 3 0 109
99 235 219 193 184 232 217 240 203 18 -29 100 -102 103 -92 2 6 -13 40 -33
77 l-37 67 102 100 102 99 -58 58 -57 58 -84 -76 c-46 -42 -85 -74 -87 -72 -2
2 -73 143 -159 314 -128 256 -155 317 -155 352 1 52 -23 90 -67 109 -42 17
-51 17 -92 -1z m120 -34 c50 -49 35 -125 -31 -157 -48 -23 -105 -6 -132 39
-25 40 -25 64 0 104 34 57 111 63 163 14z m-109 -171 c41 -1 36 -19 -34 -133
-40 -65 -78 -117 -86 -117 -40 0 -85 -67 -215 -318 -91 -178 -140 -262 -156
-269 -25 -12 -20 -1 264 555 l165 322 25 -20 c14 -11 31 -20 37 -20z m365
-400 c122 -242 218 -440 214 -440 -23 0 -49 42 -163 265 -136 266 -158 299
-203 316 -26 9 -46 34 -100 125 -65 106 -74 134 -43 134 8 0 24 9 37 20 13 10
27 19 30 20 3 0 106 -198 228 -440z m-254 250 c36 -60 73 -110 80 -110 36 0
87 -67 159 -209 l75 -147 -122 -115 c-67 -63 -155 -146 -195 -184 l-72 -68
-68 64 c-37 35 -123 117 -191 182 l-125 118 55 111 c79 163 121 224 162 239
25 9 43 27 67 68 49 82 100 161 104 161 2 0 34 -49 71 -110z m-507 -436 c3 -2
-56 -124 -64 -133 -3 -3 -9 0 -16 7 -8 8 -8 16 3 29 13 16 12 17 -3 5 -14 -11
-21 -11 -42 3 -14 10 -26 20 -26 23 0 3 12 19 28 36 l27 30 -36 -26 -36 -27
-23 24 c-23 25 -23 25 -4 47 l19 23 -23 -19 c-22 -19 -22 -19 -47 4 l-25 24
52 53 52 53 80 -77 c45 -43 82 -78 84 -79z m1083 99 l50 -47 -25 -25 c-25 -25
-25 -25 -48 -5 l-23 19 19 -23 c19 -22 19 -22 -4 -47 l-23 -24 -36 27 -36 26
28 -30 27 -30 -25 -24 c-25 -23 -25 -23 -47 -4 l-23 19 19 -23 c14 -16 17 -25
8 -34 -8 -8 -19 7 -44 56 l-32 66 74 75 c41 41 78 75 83 75 4 0 30 -21 58 -47z
m-788 -381 c70 -67 132 -122 137 -122 5 0 93 80 196 178 102 97 190 178 195
180 4 2 23 -26 41 -62 l32 -65 -24 -26 c-22 -23 -25 -24 -42 -8 -10 9 -20 14
-23 11 -3 -3 1 -11 10 -18 21 -17 19 -25 -11 -45 -25 -16 -27 -16 -58 12 l-31
28 29 -32 30 -33 -24 -25 c-22 -23 -25 -24 -42 -8 -20 18 -25 4 -6 -15 9 -9 7
-16 -7 -32 -23 -26 -33 -25 -64 2 -24 21 -24 21 2 -8 l27 -30 -25 -24 c-19
-18 -28 -21 -37 -12 -18 18 -33 15 -18 -4 11 -13 5 -23 -40 -69 -52 -53 -55
-54 -74 -37 -21 17 -21 17 -4 -4 17 -20 17 -21 -7 -44 l-25 -23 -25 23 c-23
22 -24 25 -8 42 18 20 4 25 -15 6 -9 -9 -24 -1 -64 37 -29 28 -55 51 -58 53
-3 2 3 8 13 13 9 6 17 15 17 21 0 6 -9 3 -20 -7 -20 -18 -21 -18 -45 5 l-25
24 27 30 c26 29 26 29 2 8 -31 -27 -37 -27 -66 0 -22 21 -22 22 -5 42 17 21
17 21 -4 4 -20 -17 -21 -17 -44 7 l-23 25 24 27 24 27 -33 -24 -34 -23 -21 21
c-20 21 -20 22 -2 42 21 23 10 27 -15 5 -15 -13 -19 -12 -39 9 l-23 25 37 67
37 66 62 -59 c33 -32 119 -114 189 -181z"/>
<path d="M1135 1405 c-14 -13 -25 -36 -25 -50 0 -14 11 -37 25 -50 40 -41 106
-29 126 22 28 75 -69 136 -126 78z m100 -10 c30 -29 31 -45 4 -79 -25 -32 -70
-35 -99 -6 -28 28 -25 64 6 89 35 27 59 26 89 -4z"/>
<path d="M1147 919 c-126 -30 -191 -109 -191 -234 0 -107 40 -172 134 -214 64
-29 144 -27 225 5 l65 26 0 54 c0 43 4 55 20 64 11 6 20 17 20 25 0 12 -17 15
-85 15 -77 0 -85 -2 -85 -19 0 -10 9 -21 20 -24 30 -8 27 -61 -6 -94 -23 -23
-31 -25 -81 -21 -48 4 -61 10 -86 38 -29 32 -29 33 -25 140 4 126 18 155 84
179 76 27 150 -5 163 -69 5 -26 13 -36 29 -38 21 -3 22 0 22 79 l0 82 -30 -7
c-17 -3 -56 1 -87 9 -32 8 -60 15 -63 14 -3 -1 -22 -5 -43 -10z"/>
<path d="M1099 183 l-24 -28 28 24 c15 14 27 26 27 28 0 8 -8 1 -31 -24z"/>
<path d="M1252 198 c2 -6 15 -18 29 -27 l24 -15 -24 27 c-26 29 -35 34 -29 15z"/>
<path d="M415 900 c-4 -6 -82 -10 -203 -10 -152 0 -193 -3 -184 -12 15 -15 17
-384 2 -393 -32 -20 7 -25 194 -25 154 0 206 -3 209 -12 3 -7 6 14 6 47 1 46
-2 56 -11 47 -8 -8 -57 -12 -155 -12 l-143 0 0 60 0 60 93 0 c59 0 97 -4 105
-12 9 -9 12 1 12 47 0 46 -3 56 -12 47 -8 -8 -46 -12 -105 -12 l-93 0 0 50 0
50 144 0 c106 0 146 -3 149 -12 3 -7 6 13 6 45 1 56 -2 66 -14 47z"/>
<path d="M2033 881 c-52 -24 -76 -60 -76 -114 0 -85 36 -112 171 -128 48 -5
97 -14 110 -19 30 -13 28 -44 -4 -69 -48 -38 -183 -23 -230 24 l-24 24 -20
-46 c-11 -25 -19 -47 -18 -48 2 0 35 -11 73 -23 130 -41 268 -23 310 42 27 41
29 96 5 134 -25 40 -65 58 -150 67 -36 4 -82 11 -103 16 -34 9 -38 13 -35 37
4 34 39 52 103 52 55 0 128 -28 143 -56 8 -15 14 -10 36 34 24 47 24 52 9 52
-10 0 -47 9 -81 20 -81 25 -164 25 -219 1z"/>
</g>
</svg>
